<?xml version="1.0" standalone="no"?>
<!DOCTYPE svg PUBLIC "-//W3C//DTD SVG 20010904//EN"
 "http://www.w3.org/TR/2001/REC-SVG-20010904/DTD/svg10.dtd">
<svg version="1.0" xmlns="http://www.w3.org/2000/svg"
 width="180.000000pt" height="180.000000pt" viewBox="0 0 180.000000 180.000000"
 preserveAspectRatio="xMidYMid meet">
<metadata>
Created by potrace 1.14, written by Peter Selinger 2001-2017
</metadata>
<g transform="translate(0.000000,180.000000) scale(0.100000,-0.100000)"
fill="#000000" stroke="none">
<path d="M815 1767 c-33 -17 -62 -34 -65 -38 -3 -3 -17 -5 -32 -5 -16 1 -28
-1 -28 -4 0 -3 -30 -5 -66 -5 -63 0 -68 -2 -95 -34 -16 -19 -35 -48 -44 -65
-17 -36 -50 -76 -61 -76 -19 0 -106 -65 -118 -89 -7 -14 -16 -65 -19 -113 -3
-62 -9 -92 -21 -103 -9 -9 -14 -20 -11 -25 3 -4 -2 -11 -11 -14 -8 -3 -12 -10
-9 -16 3 -5 1 -10 -5 -10 -6 0 -9 -4 -5 -9 3 -5 1 -12 -5 -16 -15 -9 -12 -41
7 -83 9 -20 15 -40 15 -44 -1 -5 2 -8 7 -8 18 0 41 -82 41 -146 0 -84 18 -117
83 -154 73 -42 80 -49 112 -105 16 -27 35 -58 43 -67 10 -12 11 -18 4 -18 -7
0 -11 -3 -10 -8 1 -4 -4 -20 -11 -37 -7 -16 -14 -34 -15 -40 -4 -14 -26 -66
-43 -97 -8 -16 -11 -28 -7 -28 3 0 2 -6 -4 -13 -6 -6 -20 -36 -32 -66 -19 -50
-20 -55 -5 -78 18 -27 43 -26 122 8 23 10 57 21 75 24 33 6 33 6 62 -62 39
-91 59 -118 89 -121 22 -1 30 6 51 53 30 62 48 105 51 121 2 6 16 39 32 74
l29 63 59 -139 c62 -147 78 -174 105 -174 24 0 37 18 82 113 21 45 41 81 46
80 4 -1 44 -15 90 -31 88 -32 101 -34 126 -13 23 19 17 40 -63 227 -39 91 -71
172 -71 179 0 17 38 84 59 106 9 8 39 28 66 43 76 43 88 65 95 171 5 73 11 98
29 124 29 41 56 124 41 129 -5 2 -8 8 -4 13 5 8 -22 66 -37 79 -18 16 -27 57
-30 139 -2 85 -20 114 -93 157 -61 37 -88 64 -120 124 -18 34 -56 78 -56 64 0
-3 -6 -1 -14 5 -12 10 -31 12 -101 10 -38 -2 -80 12 -127 41 -73 44 -111 46
-183 7z m463 -1244 c-1 -9 9 -35 45 -116 13 -29 34 -79 47 -112 13 -33 30 -71
36 -84 9 -16 10 -30 4 -42 -9 -16 -17 -15 -110 17 -55 19 -104 34 -108 34 -8
0 -38 -61 -34 -72 1 -5 -2 -8 -6 -8 -5 0 -15 -18 -22 -40 -7 -22 -22 -49 -33
-61 -24 -25 -34 -17 -62 51 -10 25 -29 69 -42 98 -13 29 -23 58 -23 65 0 7 -4
17 -9 23 -17 17 -60 143 -51 149 7 4 20 -20 25 -45 0 -3 11 -27 24 -55 12 -27
41 -95 63 -150 22 -55 45 -103 51 -107 7 -4 28 28 55 85 25 51 45 93 47 95 1
1 46 -11 100 -28 109 -34 119 -35 112 -17 -3 6 -20 46 -37 87 -16 41 -34 84
-39 95 -43 95 -58 134 -53 139 8 9 22 7 20 -1z m-708 -19 c0 -3 -6 -20 -14
-37 -28 -62 -49 -112 -52 -126 -1 -8 -6 -17 -11 -20 -4 -3 -9 -13 -11 -21 -3
-15 -17 -50 -33 -82 -5 -10 -9 -20 -9 -23 0 -10 51 2 129 29 40 14 77 23 82
21 4 -3 27 -43 49 -88 23 -45 45 -86 50 -91 6 -6 18 10 30 40 12 27 30 72 42
99 12 28 29 69 39 92 11 24 19 47 19 52 0 6 5 13 11 17 16 9 3 -45 -26 -110
-23 -51 -37 -87 -39 -96 -1 -3 -8 -16 -16 -30 -7 -14 -13 -27 -12 -30 1 -3 -6
-21 -15 -41 -28 -63 -51 -39 -124 128 -13 31 -39 53 -39 33 0 -4 -14 -11 -30
-15 -17 -4 -57 -17 -90 -30 -53 -21 -62 -22 -75 -9 -10 11 -12 21 -6 32 8 15
42 90 46 102 7 20 20 51 36 86 10 23 21 54 25 68 3 14 10 29 15 32 5 3 7 10 4
15 -4 5 1 9 9 9 9 0 16 -3 16 -6z"/>
</g>
</svg>
