<?xml version="1.0" encoding="UTF-8"?><svg id="a" xmlns="http://www.w3.org/2000/svg" viewBox="0 0 100 100"><defs><style>.b{fill:none;}.c{fill:#b3b3bb;}.d{fill:#562d8b;}</style></defs><rect class="b" y="0" width="100" height="100"/><g><g><path class="d" d="M43,82h14v-7h-14v7Z"/><rect class="d" x="57" y="68" width="7" height="7"/><rect class="d" x="36" y="68" width="7" height="7"/><path class="d" d="M64,26v42h7V26h-7Z"/><path class="d" d="M36,26h-7v42h7V26Z"/></g><g><rect class="c" x="57" y="75" width="7" height="7"/><rect class="c" x="36" y="75" width="7" height="7"/><rect class="c" x="64" y="68" width="7" height="7"/><rect class="c" x="29" y="68" width="7" height="7"/><path class="c" d="M43,89h14v-7h-14v7Z"/><path class="c" d="M64,19v7h7v42h7V19h-14Z"/><path class="c" d="M36,26v-7h-14v49h7V26h7Z"/></g></g></svg>