<svg xmlns="http://www.w3.org/2000/svg" fill="none" viewBox="0 0 31.24 33">
<path d="M27.7394 27.7402H24.5274C22.5922 27.7402 21.0234 26.1714 21.0234 24.2362V15.7682C21.0234 13.833 22.5922 12.2642 24.5274 12.2642H27.7394C29.6746 12.2642 31.2434 13.833 31.2434 15.7682V24.2362C31.2434 26.1714 29.6746 27.7402 27.7394 27.7402Z" fill="#000000"/>
<path d="M18.6878 27.0101C18.6878 30.3161 16.0078 32.9961 12.7018 32.9961C9.39584 32.9961 6.71582 30.3161 6.71582 27.0101C6.71582 23.7041 9.39584 21.0241 12.7018 21.0241C16.0078 21.0241 18.6878 23.7041 18.6878 27.0101Z" fill="#000000"/>
<path d="M15.184 18.688H3.504C1.56879 18.688 0 17.1192 0 15.184V3.50399C0 1.56878 1.56879 -1.14441e-05 3.504 -1.14441e-05H15.184C17.1192 -1.14441e-05 18.688 1.56878 18.688 3.50399V15.184C18.688 17.1192 17.1192 18.688 15.184 18.688Z" fill="#000000"/>
</svg>