<svg xmlns="http://www.w3.org/2000/svg" width="1290pt" height="165pt" viewBox="0 0 1290 165"><g id="#ffffffff"><path fill="#fff" opacity="1" d="M947.31 16.37C955 16.38 962.69 16.36 970.38 16.39 970.37 56.94 970.38 97.5 970.37 138.06 962.68 138.06 955 138.07 947.31 138.06c0-40.56.0-81.12.0-121.69z"/><path fill="#fff" opacity="1" d="M20.09 26.93C19.8 22.96 24.73 19.77 28.24 21.78c11.39 6.43 22.67 13.08 34.02 19.58C72.28 33.2 85 28.28 97.98 28.29 114.1 28.03 130.09 35.21 140.68 47.34c10.31 11.51 15.44 27.41 13.86 42.77C153.11 106.02 144.41 121.04 131.43 130.33c-11.28 8.25-25.72 11.97-39.59 10.28C80.92 139.4 70.54 134.7 62.09 127.74c-11.07 6.36-22.11 12.78-33.18 19.15C25.42 149.45 19.7 146.4 20.1 142.06 20.16 103.69 20.14 65.31 20.09 26.93m45.65 16.5c18.67 10.7 37.32 21.47 55.92 32.3C121.58 62.93 121.64 50.13 121.63 37.32c-17.78-8.89-40.48-6.47-55.89 6.11M52.69 38.46c-4.86 9.45-8.11 19.7-9.88 30.16C39.23 89.61 43.05 111.63 52.63 130.57c24.71-14.27 49.44-28.52 74.15-42.82C129.31 86.82 129.93 82.96 127.4 81.65 102.54 67.19 77.6 52.86 52.69 38.46M65.5 125.75C81.02 138.32 103.77 140.96 121.64 131.92 121.63 119.04 121.59 106.15 121.66 93.26c-18.67 10.92-37.44 21.66-56.16 32.49z"/><path fill="#fff" opacity="1" d="M178.31 23.31C192.56 23.33 206.81 23.27 221.06 23.34 237.82 23.63 255.21 29.81 266.17 42.94c10.53 12.35 14.02 29.36 12.38 45.21C277.34 101.91 271.03 115.4 260.31 124.29c-11.12 9.39-25.86 13.55-40.24 13.71C206.15 138.14 192.23 138.03 178.31 138.06c0-38.25.0-76.5.0-114.75m23.08 95.13C212.44 118.12 223.96 119.65 234.54 115.6 243.36 112.36 250.37 104.86 253.15 95.9 255.86 87.18 255.97 77.71 254.02 68.82 251.95 59.29 245.56 50.64 236.62 46.53c-10.99-5.26-23.47-3.44-35.23-3.78C201.37 67.98 201.37 93.21 201.39 118.44z"/><path fill="#fff" opacity="1" d="M993.31 23.31C1016.95 23.35 1040.59 23.22 1064.23 23.38 1064.14 29.57 1064.21 35.75 1064.18 41.94 1048.25 41.95 1032.31 41.93 1016.38 41.95 1016.38 51.72 1016.36 61.48 1016.39 71.25 1028.59 71.24 1040.79 71.26 1052.99 71.24 1053 77.35 1053 83.46 1052.99 89.57 1040.79 89.56 1028.59 89.57 1016.39 89.56 1016.36 105.73 1016.38 121.89 1016.37 138.06 1008.68 138.06 1001 138.06 993.31 138.06c0-38.25.0-76.5.0-114.75z"/><path fill="#fff" opacity="1" d="M709.94 24.43C717.67 24.45 725.4 24.4 733.14 24.46 733.11 31.95 733.13 39.44 733.12 46.94 739.91 46.94 746.71 46.93 753.5 46.94c0 6.33000000000001.0 12.67.0 19-6.78999999999996.0-13.58.0-20.37.0C733.14 80.63 733.08 95.33 733.16 110.02 733.05 113.27 734.41 117.14 737.95 117.93 743.03 119.14 748.32 118.32 753.5 118.56c.00999999999999091 6.5.0 13 0 19.49C742.69 137.71 730.93 139.62 721.12 133.94 713.4 129.62 710.18 120.43 709.99 112.02 709.86 96.66 709.98 81.3 709.94 65.94 706.31 65.94 702.68 65.94 699.06 65.94c0-6.33.0-12.67.0-19 3.62.0 7.25.0 10.8800000000001.0.0-7.5-.0100000000001046-15 0-22.51z"/><path fill="#fff" opacity="1" d="M323.39 46.68c12.04-2.47 25.19-1.32 35.95 4.93C366.92 55.91 372.87 62.86 376.23 70.88 380.06 79.84 380.64 89.87 379.36 99.44 357.15 99.45 334.95 99.42 312.74 99.45 313.32 105.48 315.64 111.61 320.48 115.48 326.38 120.52 334.99 121.54 342.23 119.18 347 117.62 350.62 113.77 352.86 109.39 361.15 109.35 369.44 109.37 377.73 109.39 373.59 123.5 361.55 135 347.16 138.18 335.96 140.63 323.79 139.83 313.43 134.69 301.33 128.92 292.89 116.9 290.47 103.84 288.14 91.14 289.4 77.33 296.05 66.06 301.81 56.03 312.13 49.03 323.39 46.68M320.49 69.28C316.07 72.89 313.8 78.42 312.92 83.92 327.32 83.95 341.73 83.94 356.14 83.93 355.91 80.14 355.06 76.27 352.78 73.16c-7.13-9.93-23.01-11.72-32.29-3.88z"/><path fill="#fff" opacity="1" d="M411.95 51.99c10.38-6.47 23.28-7.68 35.13-5.57C456.25 48.07 464.96 52.78 470.85 60.06 475.07 65.17 477.73 71.37 479.4 77.74 471.11 77.76 462.83 77.76 454.54 77.74 452.78 72.65 448.99 68.14 443.83 66.34 436.45 63.75 427.3 65.02 421.84 70.95 416.53 76.54 415.02 84.6 414.97 92.06 414.9 99.79 416.39 108.2 421.95 113.97 427.6 120.01 437.02 121.05 444.52 118.32 449.45 116.53 452.84 112.08 454.53 107.26 462.82 107.24 471.11 107.23 479.4 107.27 476.75 117.69 470.47 127.36 461.21 133.03 451.68 139.01 439.91 140.4 428.92 139 417.06 137.46 405.85 130.84 399.28 120.77 391.66 109.46 390.1 95.04 392.3 81.83 394.33 69.75 401.36 58.37 411.95 51.99z"/><path fill="#fff" opacity="1" d="M524.48 46.67c12.02-2.46 25.16-1.29 35.89 4.96C567.94 55.93 573.87 62.87 577.23 70.87 581.06 79.83 581.64 89.87 580.36 99.44 558.15 99.45 535.95 99.42 513.74 99.45 514.32 105.49 516.65 111.63 521.51 115.5 527.39 120.51 535.96 121.52 543.18 119.2 547.95 117.65 551.61 113.82 553.82 109.41 562.12 109.33 570.43 109.38 578.73 109.38c-4.13 14.1-16.15 25.59-30.52 28.79C537.02 140.63 524.85 139.84 514.49 134.72 502.35 128.95 493.88 116.9 491.46 103.8 489.15 91.11 490.4 77.31 497.05 66.05 502.83 56 513.19 49 524.48 46.67M521.45 69.31C517.05 72.92 514.8 78.43 513.92 83.92 528.32 83.95 542.73 83.94 557.14 83.93 556.9 80.41 556.21 76.82 554.23 73.84 547.39 63.31 530.93 61.26 521.45 69.31z"/><path fill="#fff" opacity="1" d="M620.34 58.13C630.67 45.15 650.09 42.45 664.7 49.16 672.58 52.87 678.79 59.88 681.59 68.13 684.09 75.14 684.22 82.68 684.13 90.04 684.12 106.05 684.13 122.05 684.12 138.06 676.43 138.06 668.75 138.06 661.06 138.06 661.05 121.38 661.07 104.7 661.05 88.02 661.03 83.26 660.34 78.34 657.9 74.18 650.93 62.02 630.33 62.23 623.45 74.37 621.09 78.46 620.39 83.27 620.38 87.94 620.37 104.64 620.38 121.35 620.37 138.06 612.68 138.06 605 138.07 597.31 138.06c0-30.37.0-60.75.0-91.12C605 46.93 612.68 46.94 620.37 46.94 620.37 50.67 620.39 54.4 620.34 58.13z"/><path fill="#fff" opacity="1" d="M792.35 60.94C798.16 51.35 809.08 45.32 820.31 45.6c0 8.09.0 16.19.0 24.28C813.29 69.83 805.59 69.39 799.55 73.62 793.93 77.41 792.6 84.7 792.42 91.01 792.32 106.69 792.41 122.38 792.37 138.06 784.68 138.06 777 138.07 769.31 138.06c0-30.37.0-60.75.0-91.12C777 46.93 784.68 46.94 792.37 46.94 792.36 51.6 792.4 56.27 792.35 60.94z"/><path fill="#fff" opacity="1" d="M841.87 58.81C854.44 43.99 878.67 40.91 894.39 52.41 897.32 54.46 899.84 57.04 902.08 59.83 902.04 55.53 902.06 51.23 902.06 46.94 909.79 46.94 917.52 46.93 925.25 46.94c0 30.37.0 60.75.0 91.12C917.52 138.06 909.79 138.06 902.06 138.06 902.06 133.66 902.05 129.26 902.07 124.85 891.16 140.2 868.38 143.7 852.43 134.52 839.97 127.61 832.41 113.9 830.87 99.99 829.06 85.58 832.08 69.94 841.87 58.81m29.59 7.8C862.88 68.88 856.39 76.55 854.68 85.13 853.04 93.2 854.06 102.13 858.85 109 862.7 114.69 869.14 118.61 876.02 119.15 884.17 119.88 892.61 116.03 897.23 109.25 901.8 102.84 902.69 94.52 901.61 86.9 900.68 80.36 897.24 74.09 891.83 70.22 886.05 66.01 878.33 64.67 871.46 66.61z"/><path fill="#fff" opacity="1" d="M1211.34 58.13C1223.95 42.37 1250.36 41.42 1264.6 55.42 1272.26 62.75 1275.09 73.68 1275.11 84 1275.15 102.02 1275.11 120.04 1275.12 138.06 1267.43 138.06 1259.74 138.06 1252.06 138.06c0-16.35-.00999999999999091-32.7.0-49.05C1252.1 83.91 1251.51 78.59 1248.87 74.13 1241.86 62.01 1221.29 62.26 1214.43 74.4 1212.08 78.49 1211.38 83.3 1211.38 87.96 1211.37 104.66 1211.38 121.36 1211.37 138.06 1203.68 138.06 1196 138.07 1188.31 138.06c0-30.37.0-60.75.0-91.12C1195.99 46.93 1203.68 46.94 1211.37 46.94 1211.37 50.67 1211.39 54.4 1211.34 58.13z"/><path fill="#fff" opacity="1" d="M1079.5 46.94C1087.19 46.94 1094.87 46.93 1102.57 46.94 1102.6 64.29 1102.5 81.63 1102.61 98.97 1102.68 106.49 1106.25 114.55 1113.46 117.7 1121.92 121.31 1133.47 119.94 1139.04 111.99 1142.15 107.65 1143.04 102.17 1143.06 96.95c0-16.67-.00999999999999091-33.34.0-50.01 7.75.0 15.5-.00999999999999801 23.25.0.0 30.37.0 60.75.0 91.12-7.75.0-15.5.0-23.25.0C1143.06 134.27 1143.03 130.48 1143.08 126.68 1132.7 140.08 1112.56 142.49 1097.94 135.12 1089.76 131.04 1083.89 123.17 1081.38 114.48 1079.76 109.14 1079.4 103.53 1079.49 97.98 1079.51 80.97 1079.49 63.95 1079.5 46.94z"/></g></svg>