<?xml version="1.0" encoding="utf-8"?>
<svg viewBox="0 -1.55 40.096 40.596" fill="none" xmlns="http://www.w3.org/2000/svg">
  <defs>
    <clipPath id="clip0">
      <rect width="340.64" height="81.293" fill="white"/>
    </clipPath>
  </defs>
  <g clip-path="url(#clip0)" transform="matrix(0.352153, 0, 0, 0.352153, 5.803092, 4.29843)" style="">
    <path d="M 45.575 37.81 L 45.355 30.924 L 52.836 30.647 C 50.729 31.241 56.485 37.004 54.325 37.004 C 48.654 37.004 51.028 51.049 51.028 41.005 L 45.575 37.81 Z M 40.648 18.956 L 40.648 -0.004 C 18.188 -0.004 0 18.185 0 40.644 C 0 63.104 18.189 81.294 40.648 81.294 L 40.648 62.334 C 28.66 62.334 18.96 52.633 18.96 40.644 C 18.96 28.657 28.66 18.956 40.648 18.956" fill="white"/>
    <path d="M62.416 18.9561C61.1711 18.9561 59.9384 18.7109 58.7882 18.2345C57.638 17.7581 56.593 17.0598 55.7127 16.1795C54.8324 15.2992 54.1341 14.2541 53.6577 13.1039C53.1812 11.9538 52.936 10.721 52.936 9.47609C52.936 8.23116 53.1812 6.99842 53.6577 5.84826C54.1341 4.69809 54.8324 3.65302 55.7127 2.77272C56.593 1.89242 57.638 1.19413 58.7882 0.717716C59.9384 0.241301 61.1711 -0.00390627 62.416 -0.00390625C64.9303 -0.00390621 67.3416 0.994877 69.1194 2.77272C70.8972 4.55057 71.896 6.96184 71.896 9.47609C71.896 11.9903 70.8972 14.4016 69.1194 16.1795C67.3416 17.9573 64.9303 18.9561 62.416 18.9561" fill="#00D8D5"/>
    <path d="M62.2571 81.293C59.7428 81.293 57.3316 80.2942 55.5537 78.5164C53.7759 76.7385 52.7771 74.3273 52.7771 71.813C52.7771 69.2988 53.7759 66.8875 55.5537 65.1096C57.3316 63.3318 59.7428 62.333 62.2571 62.333C64.7714 62.333 67.1826 63.3318 68.9605 65.1096C70.7383 66.8875 71.7371 69.2988 71.7371 71.813C71.7371 74.3273 70.7383 76.7385 68.9605 78.5164C67.1826 80.2942 64.7714 81.293 62.2571 81.293" fill="#FF4C8B"/>
    <path d="M62.337 40.6441C62.337 52.6331 52.6369 62.3341 40.6479 62.3341V18.9551C52.6359 18.9551 62.337 28.6551 62.337 40.6431" fill="white"/>
  </g>
</svg>