<svg xmlns="http://www.w3.org/2000/svg" version="1.0" preserveAspectRatio="xMidYMid meet" viewBox="-25 0 450 350">
<metadata>
Created by potrace 1.16, written by Peter Selinger 2001-2019
</metadata>
<g transform="translate(0.000000,365.000000) scale(0.100000,-0.100000)" fill="#000000" stroke="none">
<path d="M1051 3526 c-13 -7 -30 -24 -37 -37 -28 -50 -18 -79 96 -277 61 -105 110 -198 110 -206 0 -7 -29 -123 -65 -257 -36 -134 -65 -258 -65 -274 0 -91 130 -134 187 -61 10 12 45 124 78 249 33 125 64 227 70 227 5 0 111 -27 235 -60 145 -39 235 -58 252 -54 73 15 103 117 51 173 -25 27 -56 38 -288 99 l-260 69 -115 197 c-72 124 -125 203 -140 212 -32 17 -78 17 -109 0z"/>
<path d="M2648 3019 c-121 -17 -245 -108 -300 -220 -83 -169 -46 -364 92 -492 174 -162 458 -137 602 52 99 129 115 292 44 437 -42 85 -113 155 -194 190 -46 21 -74 28 -162 38 -14 1 -51 -1 -82 -5z m151 -229 c145 -73 144 -278 -1 -349 -84 -40 -180 -16 -242 62 -28 35 -31 46 -31 111 0 62 4 78 27 113 50 77 164 106 247 63z"/>
<path d="M1745 2517 c-145 -48 -243 -151 -280 -292 -30 -116 -11 -233 55 -335 42 -66 90 -106 170 -144 60 -29 73 -31 175 -31 103 0 114 2 178 32 165 78 261 263 228 440 -25 136 -107 245 -228 305 -59 29 -77 33 -162 35 -60 2 -111 -2 -136 -10z m205 -222 c41 -21 88 -80 100 -126 37 -138 -95 -275 -230 -240 -91 24 -152 101 -152 191 0 143 156 240 282 175z"/>
<path d="M887 2020 c-207 -66 -329 -288 -273 -496 57 -216 264 -345 483 -300 316 64 439 445 220 683 -52 57 -98 87 -176 113 -76 25 -176 25 -254 0z m176 -201 c68 -19 126 -83 142 -158 18 -86 -56 -196 -148 -219 -140 -36 -274 100 -237 238 14 53 73 117 125 135 49 17 69 18 118 4z"/>
<path d="M2663 1965 c-190 -59 -314 -258 -284 -453 21 -137 115 -262 238 -320 52 -24 69 -27 168 -27 103 0 114 2 177 32 40 19 89 53 118 83 30 29 64 78 83 118 30 62 32 75 32 172 0 97 -2 110 -31 171 -54 114 -141 190 -253 223 -65 19 -190 20 -248 1z m203 -214 c79 -36 133 -134 115 -211 -23 -101 -95 -162 -191 -162 -108 0 -200 91 -200 200 0 34 27 93 58 126 59 62 144 81 218 47z"/>
<path d="M1806 1471 c-246 -81 -355 -357 -235 -593 12 -23 44 -65 73 -93 158 -158 424 -159 582 -1 167 168 161 436 -15 598 -78 72 -146 100 -261 104 -65 3 -99 -1 -144 -15z m192 -207 c78 -32 125 -99 125 -179 0 -109 -84 -195 -190 -195 -93 0 -164 53 -193 144 -26 82 18 178 102 220 59 30 103 33 156 10z"/>
<path d="M2712 939 c-261 -44 -411 -337 -299 -583 131 -286 541 -317 716 -55 54 80 66 125 66 239 0 86 -3 102 -32 162 -59 126 -158 205 -290 233 -75 16 -85 16 -161 4z m146 -224 c100 -42 148 -155 107 -253 -35 -82 -107 -126 -197 -120 -201 15 -244 291 -58 372 45 20 101 20 148 1z"/>
</g>
</svg>