<svg width="372" height="372" viewBox="-100 -200 550 550" fill="black" xmlns="http://www.w3.org/2000/svg">
  <g clip-path="url(#clip0)">
    <path d="M369.324 9.7682L352.658 18.7537V0.140869H347.324V18.7537L330.658 9.7682L327.991 13.6191L344.658 23.2465L327.991 32.8738L330.658 36.7247L347.324 27.7392V46.352H352.658V27.7392L369.324 36.7247L371.991 32.8738L355.324 23.2465L371.991 13.6191L369.324 9.7682Z" fill="white" />
    <path d="M12.6667 23.2499V133.001H0V23.2499H12.6667Z" fill="white" />
    <path d="M151.311 23.2351L111.311 90.6264V132.987H98.6441V90.6264L58.644 23.2351H73.3107L105.977 80.9991L138.644 23.2351H151.311Z" fill="white" />
    <path d="M279.982 23.2351L224.649 77.1481L280.648 132.987H262.649L209.982 79.0736V132.987H197.315V23.2351H209.982V75.2227L261.982 23.2351H279.982Z" fill="white" />
  </g>
  <defs>
    <clipPath id="clip0">
      <rect width="372" height="132.857" fill="white" transform="translate(0 0.140625)" />
    </clipPath>
  </defs>
</svg>
