<?xml version="1.0" encoding="UTF-8"?> <svg xmlns="http://www.w3.org/2000/svg" width="272" height="187" viewBox="-39 -81 350 350" fill="none"> <path d="M7.9343 0H18.5064C24.1784 16.287 29.8397 32.0593 35.5117 42.0202C41.173 32.8635 46.8451 18.9675 52.5386 0H63.1213C65.2658 27.2987 67.4102 44.304 69.5546 52.8925H59.6902C58.1784 47.3598 56.6666 36.9486 55.1548 21.2942C50.6193 33.346 46.1052 42.1703 41.559 48.0461C37.5275 47.9388 33.496 47.7423 29.4644 47.4563C24.9289 40.6692 20.372 30.14 15.8687 18.4207C14.3569 32.3595 12.8451 43.0817 11.3332 52.8925H1.51172C3.65615 35.3081 5.78987 20.3721 7.9343 0Z" fill="#8F42FF"></path> <path d="M91.4278 0H114.084C120.131 18.2277 126.178 31.7376 132.226 52.8925H122.018C120.131 46.9631 118.244 41.5699 116.357 36.3267C106.782 39.3825 97.2178 42.181 87.6429 44.4112C86.4396 47.3228 85.0537 50.1556 83.4934 52.8925H73.2859C79.344 43.9609 85.3805 23.2778 91.4278 0ZM113.333 28.5317C111.189 22.6238 109.044 16.6408 106.9 10.0145L98.6439 10.7972C95.9955 19.7395 93.3578 28.3816 90.7095 35.8228C98.2257 33.5819 105.774 31.0943 113.333 28.5317Z" fill="#8F42FF"></path> <path d="M137.512 0H181.333V4.7392C170 4.7392 158.667 5.4147 147.333 6.28319V15.0754C155.772 14.0032 164.21 13.1668 172.648 12.7701V21.4443C164.21 21.8732 155.772 22.7525 147.333 23.889V52.8925H137.512V0Z" fill="#8F42FF"></path> <path d="M188.131 0H231.953V9.07096C220.731 6.91468 209.368 5.57803 197.953 5.07159V13.0703C206.49 13.7242 214.958 15.0907 223.268 17.1555V26.0656C214.973 23.8889 206.501 22.4537 197.953 21.7767V52.8925H188.131V0Z" fill="#8F42FF"></path> <path d="M7.9343 63.2608H18.5064C25.5516 72.3064 31.2771 82.3063 35.5117 92.9612C41.173 78.186 46.8451 68.2359 52.5386 63.2608H63.1213C65.2658 71.3239 67.4102 89.6373 69.5546 116.153H59.6902C58.1784 96.5424 56.6666 81.7565 55.1548 72.1924C50.6193 79.344 46.1052 89.5516 41.559 102.836C37.5275 102.944 33.496 103.126 29.4644 103.405C25.9288 93.5085 21.3723 84.0075 15.8687 75.0552C14.3569 86.1848 12.8665 100.67 11.3332 116.153H1.51172C3.65615 98.4617 5.78987 78.0788 7.9343 63.2608Z" fill="white"></path> <path d="M76.3099 63.2608H121.643V73.0394C109.806 71.8385 97.9687 70.6376 86.1314 69.6941V76.8672C95.0737 78.0038 104.016 79.3869 112.937 80.7915V89.8303C103.995 88.2542 95.0522 86.7102 86.1314 85.4342V104.434C97.9258 105.388 109.806 106.578 121.643 107.79V116.153H76.3099V63.2608Z" fill="white"></path> <path d="M145.071 75.1517C138.777 74.6692 132.472 74.0795 126.179 73.479V63.2608H173.774V76.6099C167.48 76.5027 161.186 76.2239 154.893 75.8379V116.153H145.071V75.1517Z" fill="white"></path> <path d="M186.63 63.2608H209.297C215.334 87.8574 221.381 98.9549 227.428 116.153H217.221C215.334 111.864 213.446 107.865 211.559 103.362C202.218 106.406 192.601 108.525 182.845 109.688C181.697 111.975 180.306 114.132 178.696 116.121H168.488C174.536 108.519 180.583 91.1384 186.63 63.2608ZM208.536 96.2636C206.391 90.5165 204.247 83.8474 202.102 75.8057C199.336 76.0309 196.559 76.2024 193.793 76.3311C191.656 85.1067 189.007 93.7493 185.858 102.214C193.565 100.842 201.148 98.8515 208.536 96.2636Z" fill="white"></path> <path d="M0 132.418C3.39893 132.311 6.79786 132.204 10.1968 132.118C15.3649 143.494 20.5222 154.184 25.6903 171.726C28.2065 171.483 30.7083 171.272 33.1958 171.093C38.3639 152.115 43.532 138.176 48.6894 131.582H58.972C52.6351 139.388 46.3412 157.766 40.0473 184.528C32.9921 184.585 25.9405 184.682 18.8925 184.818C12.5878 161.443 6.29392 149.531 0 132.418Z" fill="white"></path> <path d="M64.2259 131.582C79.3334 131.582 94.441 131.786 109.559 132V139.077C97.7648 138.08 85.8847 137.265 74.0474 136.836V143.334C82.9897 143.805 91.9212 144.61 100.853 145.607V154.184C91.9105 153.112 82.9789 152.19 74.0474 151.675V171.554C85.8418 171.973 97.7219 172.798 109.559 173.785V184.85C94.441 184.635 79.3334 184.464 64.2259 184.421V131.582Z" fill="white"></path> <path d="M117.118 132.118C133.481 132.365 149.853 132.654 166.226 132.88V153.756C166.226 161.54 161.766 166.483 154.056 167.802C157.575 174.131 161.636 180.144 166.194 185.772L154.861 185.6C150.791 179.915 147.057 173.997 143.677 167.877C138.112 167.587 132.548 167.298 126.983 167.073V185.161L117.161 185L117.118 132.118ZM147.709 159.138C151.869 159.353 156.405 158.205 156.405 152.137V143.366C146.583 142.508 136.761 141.543 126.94 140.632V157.851C133.856 158.27 140.782 158.688 147.709 159.138Z" fill="white"></path> <path d="M171.555 178.481C174.332 177.323 177.098 176.154 179.864 174.943C182.138 177.463 187.799 181.633 197.245 181.837C204.043 182.009 210.112 181.108 210.112 177.484C210.112 169.013 173.088 173.635 173.088 151.944C173.088 142.669 180.594 131.239 195.004 130.907C207.871 130.843 215.773 141.865 218.797 151.397C215.523 152.248 212.249 153.034 208.975 153.756C207.798 150.901 205.811 148.454 203.26 146.714C200.709 144.975 197.705 144.02 194.618 143.966C186.684 143.709 182.91 148.416 182.91 152.844C182.91 164.178 219.933 160.629 219.933 177.505C219.933 185.783 210.112 186.576 197.267 186.855C180.583 187.284 173.785 181.108 171.555 178.481Z" fill="white"></path> <path d="M226.667 133.234C241.785 133.148 256.892 132.912 272 132.419V141.533C260.265 143.711 248.404 145.144 236.488 145.822V156.544C245.506 155.76 254.462 154.37 263.294 152.384V161.691C254.484 163.882 245.524 165.42 236.488 166.29V180.572C248.405 179.9 260.266 178.467 272 176.283V185.344C256.892 185.837 241.785 186.084 226.667 186.169V133.234Z" fill="white"></path> </svg> 