<svg xmlns="http://www.w3.org/2000/svg" fill="none" viewBox="0 0 61.86 61.86">
<g filter="url(#filter0_b)">
<path fill-rule="evenodd" clip-rule="evenodd" d="M6.56167 6.56167C11.023 2.10037 17.5554 0 25.7981 0H36.0647C44.3074 0 50.8398 2.10037 55.3011 6.56167C59.7624 11.023 61.8628 17.5554 61.8628 25.7981V36.0647C61.8628 44.3074 59.7624 50.8398 55.3011 55.3011C50.8398 59.7624 44.3074 61.8628 36.0647 61.8628H25.7981C17.5554 61.8628 11.023 59.7624 6.56167 55.3011C2.10037 50.8398 0 44.3074 0 36.0647V25.7981C0 17.5554 2.10037 11.023 6.56167 6.56167Z" fill="url(#paint0_linear)"/>
</g>
<g filter="url(#filter1_i)">
<path fill-rule="evenodd" clip-rule="evenodd" d="M31 12C22.7157 12 16 18.558 16 26.6478V44C16 45.1046 16.917 46 18.0481 46H43.9519C45.083 46 46 45.1046 46 44V26.6478C46 18.558 39.2843 12 31 12Z" fill="black"/>
</g>
<path d="M31 11C22.186 11 15 17.9835 15 26.6478V44C15 45.6791 16.3872 47 18.0481 47H43.9519C45.6128 47 47 45.6791 47 44V26.6478C47 17.9835 39.814 11 31 11Z" stroke="url(#paint1_linear)" stroke-opacity="0.5" stroke-width="2"/>
<path d="M31 11C22.186 11 15 17.9835 15 26.6478V44C15 45.6791 16.3872 47 18.0481 47H43.9519C45.6128 47 47 45.6791 47 44V26.6478C47 17.9835 39.814 11 31 11Z" stroke="white" stroke-width="2"/>
<path fill-rule="evenodd" clip-rule="evenodd" d="M21 29.132C21 24.0998 25.0893 20 30.1304 20C35.1628 20 39.2609 24.0992 39.2609 29.132V29.1471L39.2455 29.6502C39.2382 29.8556 39.1542 30.2373 38.7644 30.4716C38.4379 30.6679 38.1262 30.6086 38.0515 30.5933C37.8762 30.5572 37.7497 30.4786 37.7384 30.4716C37.6811 30.4375 37.6327 30.4005 37.6208 30.3915L37.6193 30.3903C37.5988 30.3747 37.5664 30.3491 37.5395 30.3279C37.5284 30.319 37.5181 30.3109 37.51 30.3046C37.4349 30.2455 37.329 30.1645 37.1921 30.0726C36.9163 29.8874 36.519 29.6615 36.0248 29.5025C35.0833 29.1997 33.7095 29.1085 32.0168 30.2091C30.3009 31.6724 30.1082 33.2495 30.3015 34.4885C30.4027 35.1368 30.6144 35.7032 30.8035 36.1131C30.8972 36.3161 30.9836 36.4771 31.0456 36.5877C31.0696 36.6306 31.0887 36.6635 31.1061 36.6938C31.1121 36.7041 31.1178 36.714 31.1236 36.724C31.1313 36.7375 31.1486 36.7676 31.1639 36.7969L31.1645 36.798C31.1697 36.808 31.1943 36.855 31.2168 36.9144L31.2175 36.9163C31.2248 36.9353 31.2681 37.0477 31.2789 37.1955C31.2835 37.2587 31.2978 37.4916 31.16 37.7439C31.0896 37.8548 30.8958 38.0536 30.7732 38.1346C30.6476 38.1937 30.4026 38.2543 30.2886 38.2609H29.8891L29.8755 38.2605C24.9525 38.125 21 34.0877 21 29.132ZM30.1304 21.9849C26.1872 21.9849 22.9849 25.1944 22.9849 29.132C22.9849 32.578 25.4279 35.4572 28.6742 36.1304C28.5395 35.7378 28.4173 35.2872 28.3404 34.7945C28.0578 32.9832 28.4056 30.6482 30.784 28.6522L30.8274 28.6157L30.8747 28.5845C33.136 27.0895 35.1612 27.1397 36.6327 27.613C36.8159 27.672 36.9893 27.737 37.1523 27.8055C36.5276 24.4987 33.6133 21.9849 30.1304 21.9849ZM38.819 28.809C38.8252 28.8136 38.8266 28.8148 38.8217 28.8111L38.819 28.809Z" fill="white"/>
<path fill-rule="evenodd" clip-rule="evenodd" d="M40.6785 35.6123C39.578 38.9545 35.9745 40.7774 32.632 39.6814C29.2817 38.5829 27.4673 34.9781 28.5681 31.6347C29.6686 28.2926 33.267 26.4679 36.6146 27.5656C39.9592 28.6622 41.7801 32.2666 40.6785 35.6123ZM38.8174 34.9987C38.0551 37.3137 35.5573 38.5772 33.2422 37.8181C30.9229 37.0576 29.667 34.5633 30.4293 32.2483C31.1918 29.9325 33.6851 28.6685 36.0044 29.429C38.3196 30.1881 39.5799 32.6829 38.8174 34.9987Z" fill="white"/>
<defs>
<filter id="filter0_b" x="-100" y="-100" width="261.863" height="261.863" filterUnits="userSpaceOnUse" color-interpolation-filters="sRGB">
<feFlood flood-opacity="0" result="BackgroundImageFix"/>
<feGaussianBlur in="BackgroundImage" stdDeviation="50"/>
<feComposite in2="SourceAlpha" operator="in" result="effect1_backgroundBlur"/>
<feBlend mode="normal" in="SourceGraphic" in2="effect1_backgroundBlur" result="shape"/>
</filter>
<filter id="filter1_i" x="14" y="10" width="34" height="42" filterUnits="userSpaceOnUse" color-interpolation-filters="sRGB">
<feFlood flood-opacity="0" result="BackgroundImageFix"/>
<feBlend mode="normal" in="SourceGraphic" in2="BackgroundImageFix" result="shape"/>
<feColorMatrix in="SourceAlpha" type="matrix" values="0 0 0 0 0 0 0 0 0 0 0 0 0 0 0 0 0 0 127 0" result="hardAlpha"/>
<feOffset dy="4"/>
<feGaussianBlur stdDeviation="2"/>
<feComposite in2="hardAlpha" operator="arithmetic" k2="-1" k3="1"/>
<feColorMatrix type="matrix" values="0 0 0 0 0 0 0 0 0 0 0 0 0 0 0 0 0 0 0.25 0"/>
<feBlend mode="normal" in2="shape" result="effect1_innerShadow"/>
</filter>
<linearGradient id="paint0_linear" x1="1.76471" y1="12.143" x2="43.2014" y2="61.4136" gradientUnits="userSpaceOnUse">
<stop stop-color="#45E6FF"/>
<stop offset="0.572917" stop-color="#0066FF"/>
<stop offset="1" stop-color="#EF7EFF"/>
</linearGradient>
<linearGradient id="paint1_linear" x1="21.041" y1="16.3099" x2="43.6366" y2="45.8666" gradientUnits="userSpaceOnUse">
<stop stop-color="#5B23F5"/>
<stop offset="0.53125" stop-color="#2FE1FC"/>
<stop offset="1" stop-color="#C421EB"/>
</linearGradient>
</defs>
</svg>