<svg width="320" height="320" viewBox="-100 -640 1600 1600" fill="black" xmlns="http://www.w3.org/2000/svg">
<path d="M416.591 270V199.507C426.071 210.017 445.801 221.296 477.573 221.296C523.181 221.296 557.772 194.38 557.772 154.648C557.772 112.096 524.462 88 478.085 88C451.181 88 429.914 95.9465 416.591 110.045V90.5634H382V270H416.591ZM469.117 193.355C437.345 193.355 416.591 177.718 416.591 154.648C416.591 131.577 437.345 115.941 469.117 115.941H473.729C503.195 115.941 522.669 131.577 522.669 154.648C522.669 177.718 503.195 193.355 473.729 193.355H469.117Z" fill="white"/>
<path d="M622.773 218.732V153.11C622.773 131.065 630.204 121.58 655.571 121.58H693.236V90.5634H663.001C641.991 90.5634 628.41 101.073 622.773 114.403V90.5634H588.183V218.732H622.773Z" fill="white"/>
<path d="M793.693 270C811.629 270 820.853 261.028 820.853 243.085V210.53L894.903 90.5634H854.675L803.43 175.411L750.903 90.5634H709.651L786.262 211.299V230.011C786.262 237.701 783.7 240.265 776.013 240.265H723.487V270H793.693Z" fill="white"/>
<path d="M975.068 221.296C1024.01 221.296 1046.04 205.659 1046.04 180.538C1046.04 161.056 1034.26 145.163 994.797 141.318L963.538 138.242C943.552 136.192 940.99 132.346 940.99 126.963C940.99 120.555 950.982 115.941 971.737 115.941H976.349C999.666 115.941 1010.43 122.862 1012.99 132.859H1048.6C1046.04 106.2 1022.73 88 973.787 88C933.815 88 906.143 100.817 906.143 129.27C906.143 148.496 916.904 163.876 954.057 167.465L990.185 171.054C1007.86 172.848 1010.94 176.949 1010.94 182.076C1010.94 188.997 1004.02 193.355 977.63 193.355H973.018C952.52 193.355 935.609 185.921 934.071 176.437H898.456C900.506 204.121 928.434 221.296 975.068 221.296Z" fill="white"/>
<path d="M1113.71 218.732V159.262C1113.71 132.859 1127.8 115.941 1152.91 115.941H1157.52C1185.96 115.941 1198.26 130.039 1198.26 150.29V218.732H1232.85V159.262C1232.85 132.859 1248.48 115.941 1275.13 115.941H1279.74C1307.16 115.941 1317.41 130.039 1317.41 150.29V218.732H1352V149.008C1352 114.659 1334.83 88 1283.84 88C1256.43 88 1232.34 96.2028 1220.3 116.197C1209.54 96.9718 1188.78 88 1163.67 88C1139.08 88 1122.93 96.4592 1113.71 110.558V90.5634H1079.12V218.732H1113.71Z" fill="white"/>
<g clip-path="url(#clip0)">
<path d="M162.063 57.0294C168.252 46.3235 183.748 46.3235 189.937 57.0294L298.828 245.411C305.007 256.102 297.267 269.455 284.891 269.455H67.1093C54.7326 269.455 46.9928 256.102 53.1725 245.411L162.063 57.0294Z" fill="white"/>
</g>
<defs>
<clipPath id="clip0">
<rect width="250" height="220.455" fill="white" transform="translate(51 49)"/>
</clipPath>
</defs>
</svg>
