<svg xmlns="http://www.w3.org/2000/svg" fill="none" viewBox="0 0 120 120">
<path d="M0 41.6C0 27.0386 0 19.758 2.83383 14.1962C5.32654 9.30403 9.30403 5.32654 14.1962 2.83383C19.758 0 27.0386 0 41.6 0H78.4C92.9614 0 100.242 0 105.804 2.83383C110.696 5.32654 114.673 9.30403 117.166 14.1962C120 19.758 120 27.0386 120 41.6V78.4C120 92.9614 120 100.242 117.166 105.804C114.673 110.696 110.696 114.673 105.804 117.166C100.242 120 92.9614 120 78.4 120H41.6C27.0386 120 19.758 120 14.1962 117.166C9.30403 114.673 5.32654 110.696 2.83383 105.804C0 100.242 0 92.9614 0 78.4V41.6Z" fill="url(#paint0_linear_35_37)"/>
<mask id="mask0_35_37" style="mask-type:alpha" maskUnits="userSpaceOnUse" x="20" y="20" width="80" height="80">
<path d="M20 62V26C20 22.6863 22.6863 20 26 20C66.8691 20 100 53.1309 100 94C100 97.3137 97.3137 100 94 100H58C54.6863 100 52 97.3137 52 94C52 79.6406 40.3594 68 26 68C22.6863 68 20 65.3137 20 62Z" fill="#C4C4C4"/>
</mask>
<g mask="url(#mask0_35_37)">
<mask id="mask1_35_37" style="mask-type:alpha" maskUnits="userSpaceOnUse" x="20" y="20" width="80" height="80">
<path d="M20.0001 38V20H100V100H82.0001V94C82.0001 63.0721 56.928 38 26.0001 38H20.0001Z" fill="#C4C4C4"/>
</mask>
<g mask="url(#mask1_35_37)">
<path d="M0 0H120V120H0V0Z" fill="#6759FF"/>
<g filter="url(#filter0_f_35_37)">
<path d="M0 26H26C63.5554 26 94 56.4446 94 94V120H0V26Z" fill="#FF4000"/>
</g>
</g>
<mask id="mask2_35_37" style="mask-type:alpha" maskUnits="userSpaceOnUse" x="20" y="36" width="64" height="64">
<path d="M20 54V36H26C58.0325 36 84 61.9675 84 94V100H66V94C66 71.9086 48.0914 54 26 54H20Z" fill="#C4C4C4"/>
</mask>
<g mask="url(#mask2_35_37)">
<path d="M0 36H84V120H0V36Z" fill="#FF7F00"/>
<g filter="url(#filter1_f_35_37)">
<path d="M0 42H26C54.7188 42 78 65.2812 78 94V120H0V42Z" fill="#FFFF00"/>
</g>
</g>
<mask id="mask3_35_37" style="mask-type:alpha" maskUnits="userSpaceOnUse" x="20" y="52" width="48" height="48">
<path d="M20 62V52H26C49.196 52 68 70.804 68 94V100H58C54.6863 100 52 97.3137 52 94C52 79.6406 40.3594 68 26 68C22.6863 68 20 65.3137 20 62Z" fill="#C4C4C4"/>
</mask>
<g mask="url(#mask3_35_37)">
<path d="M0 52H26C49.196 52 68 70.804 68 94V120H0V52Z" fill="#00E513"/>
</g>
<mask id="mask4_35_37" style="mask-type:alpha" maskUnits="userSpaceOnUse" x="20" y="52" width="48" height="48">
<path d="M20 100V52H26C49.196 52 68 70.804 68 94V100H20Z" fill="#C4C4C4"/>
</mask>
<g mask="url(#mask4_35_37)">
<g filter="url(#filter2_f_35_37)">
<path d="M0 58H26C45.8822 58 62 74.1177 62 94V120H0V58Z" fill="#00AAFF"/>
</g>
</g>
</g>
<defs>
<filter id="filter0_f_35_37" x="-18" y="8" width="130" height="130" filterUnits="userSpaceOnUse" color-interpolation-filters="sRGB">
<feFlood flood-opacity="0" result="BackgroundImageFix"/>
<feBlend mode="normal" in="SourceGraphic" in2="BackgroundImageFix" result="shape"/>
<feGaussianBlur stdDeviation="9" result="effect1_foregroundBlur_35_37"/>
</filter>
<filter id="filter1_f_35_37" x="-18" y="24" width="114" height="114" filterUnits="userSpaceOnUse" color-interpolation-filters="sRGB">
<feFlood flood-opacity="0" result="BackgroundImageFix"/>
<feBlend mode="normal" in="SourceGraphic" in2="BackgroundImageFix" result="shape"/>
<feGaussianBlur stdDeviation="9" result="effect1_foregroundBlur_35_37"/>
</filter>
<filter id="filter2_f_35_37" x="-18" y="40" width="98" height="98" filterUnits="userSpaceOnUse" color-interpolation-filters="sRGB">
<feFlood flood-opacity="0" result="BackgroundImageFix"/>
<feBlend mode="normal" in="SourceGraphic" in2="BackgroundImageFix" result="shape"/>
<feGaussianBlur stdDeviation="9" result="effect1_foregroundBlur_35_37"/>
</filter>
<linearGradient id="paint0_linear_35_37" x1="60" y1="0" x2="60" y2="120" gradientUnits="userSpaceOnUse">
<stop stop-color="#174299"/>
<stop offset="1" stop-color="#001E59"/>
</linearGradient>
</defs>
</svg>