<svg xmlns="http://www.w3.org/2000/svg" viewBox="-0.78 -0.78 33.57 33.57"><style><![CDATA[.N{fill:none}.O{clip-path:url(#A)}.P{clip-rule:evenodd}]]></style><defs><clipPath id="C"><circle cx="107" cy="106" r="102" class="N"/></clipPath><clipPath id="D"><circle cx="107" cy="106" r="100" class="N"/></clipPath><clipPath id="E"><circle cx="107" cy="106" r="92" class="N"/></clipPath><clipPath id="F"><path d="M135 94.06l26-19c2.27-1.85 4-1.42 4 2V135c0 3.84-2.16 3.4-4 2l-26-19zM47 77.2v43.2A17.69 17.69 0 0 0 64.77 138h63a3.22 3.22 0 0 0 3.23-3.2V91.6A17.69 17.69 0 0 0 113.23 74h-63A3.22 3.22 0 0 0 47 77.2z" class="N P"/></clipPath><clipPath id="G"/></defs><g transform="matrix(.156863 0 0 .156863 -.784314 -.627496)" class="O"><g clip-path="url(#C)"><path d="M0-1h214v214H0z" fill="#e5e5e4"/></g><g clip-path="url(#D)"><path d="M2 1h210v210H2z" fill="#fff"/></g><g clip-path="url(#E)"><path d="M10 9h194v194H10z" fill="#4a8cff"/></g><g clip-path="url(#F)"><path d="M42 69h128v74H42z" fill="#fff"/></g></g></svg>