<svg width="100" height="100" viewBox="-16 -34 100 100" fill="none" xmlns="http://www.w3.org/2000/svg">
<path d="M24.6676 24.9215C23.2663 24.9215 22.0256 24.9503 20.7995 24.8926C20.6243 24.8781 20.4055 24.5173 20.3033 24.2719C18.683 20.0859 17.0921 15.8854 15.4866 11.6994C14.9173 10.2271 14.3188 8.75478 13.7934 7.26802C13.5598 6.61847 13.1803 6.22874 12.4943 6.2143C11.7937 6.19987 11.3996 6.61847 11.1515 7.23916C10.1297 9.8085 9.108 12.3779 8.08627 14.9328C6.8164 18.0939 5.56114 21.2695 4.27668 24.4307C4.2037 24.6184 3.98475 24.907 3.82419 24.907C2.59812 24.9503 1.35744 24.9359 0 24.9359C0.467077 23.7522 0.890365 22.6985 1.31366 21.6304C3.47389 16.2463 5.63412 10.8767 7.75056 5.49257C8.7431 2.95209 10.407 2.36028 12.9906 2.43245C15.2822 2.49019 16.5812 3.71713 17.3549 5.7957C19.6318 11.8871 21.9964 17.9495 24.3318 24.0265C24.4339 24.2719 24.5216 24.5029 24.6676 24.9215Z" fill="url(#paint0_linear)"></path>
<path d="M68.0011 7.72774C67.5539 8.78033 67.1643 9.71757 66.7604 10.6548C63.8175 17.5038 60.8601 24.3384 57.9316 31.1874C57.6718 31.793 57.3833 32.0381 56.7197 31.9949C55.883 31.9372 55.0463 31.9805 54.0653 31.9805C55.1617 29.4139 56.2004 26.9626 57.2535 24.4826C56.9939 24.4105 56.8928 24.3528 56.7774 24.3528C55.3348 24.3673 54.4837 23.5887 53.9787 22.3053C52.5361 18.6573 51.0791 15.0094 49.622 11.3614C49.2469 10.4097 48.8574 9.4436 48.4679 8.49195C48.3813 8.27566 48.3236 8.05939 48.2227 7.74217C49.3191 7.74217 50.3288 7.71333 51.3243 7.771C51.5263 7.78542 51.7859 8.1459 51.8869 8.40544C53.3728 12.039 54.8443 15.687 56.3158 19.3206C56.4889 19.7676 56.7054 20.2001 56.864 20.6472C57.0515 21.1806 57.3689 21.4402 57.9748 21.469C58.5951 21.4979 58.7395 21.1374 58.9269 20.7048C60.6725 16.6242 62.447 12.5725 64.1782 8.49195C64.4234 7.9152 64.7263 7.68449 65.3611 7.72774C66.1979 7.771 67.0345 7.72774 68.0011 7.72774Z" fill="url(#paint1_linear)"></path>
<path d="M36.6523 16.1396C36.6523 14.6724 36.6377 13.2194 36.6668 11.7522C36.6814 11.1193 36.5067 10.8603 35.8084 10.8747C34.2226 10.9178 34.2226 10.8747 34.2226 9.29239C34.2226 7.72444 34.2226 7.69567 35.823 7.72444C36.4486 7.73883 36.6959 7.55182 36.6668 6.91889C36.6231 6.15649 36.6523 5.3797 36.6523 4.61731C36.6523 3.55282 36.6523 3.55282 37.6998 3.55282C38.209 3.55282 38.7182 3.5816 39.2274 3.53844C39.7657 3.49529 39.9694 3.68228 39.9548 4.22891C39.9257 5.13516 39.9694 6.05579 39.9403 6.96204C39.9112 7.56621 40.1585 7.7532 40.755 7.73883C41.9189 7.69567 43.0829 7.73883 44.2468 7.72444C44.7123 7.71005 44.916 7.8539 44.887 8.32861C44.8578 9.0047 44.8578 9.6664 44.887 10.3425C44.9015 10.7884 44.7123 10.9323 44.2759 10.9178C43.0392 10.9035 41.8026 10.9323 40.5659 10.9035C40.0858 10.8891 39.9257 11.0474 39.9403 11.5221C39.9548 14.1113 39.9257 16.7006 39.9548 19.2899C39.9839 21.3325 40.7114 21.9654 42.7628 21.9799C44.7705 21.9799 44.7705 21.9799 44.7705 23.9794C44.7705 24.9431 44.7705 24.9719 43.8103 24.9287C42.3845 24.8713 40.9587 24.8713 39.562 24.6698C38.1508 24.4541 37.3797 23.404 37.0159 22.1093C36.8268 21.4476 36.7395 20.7571 36.7104 20.0667C36.6668 18.772 36.6959 17.4774 36.6959 16.1827C36.6668 16.1396 36.6668 16.1396 36.6523 16.1396Z" fill="url(#paint2_linear)"></path>
<path d="M27.7937 12.5724C27.7937 8.65493 27.8084 4.7375 27.7792 0.834584C27.7792 0.225205 27.9254 -0.0504661 28.5834 0.00756991C29.2416 0.0656059 29.8996 0.0510969 30.5576 0.00756991C31.1865 -0.0359571 31.3473 0.225205 31.3328 0.805568C31.3035 2.88035 31.3182 4.95513 31.3182 7.04444C31.3182 12.79 31.3035 18.5501 31.3328 24.2957C31.3328 24.963 31.1427 25.2097 30.4699 25.1517C29.8119 25.0937 29.1538 25.0937 28.4957 25.1517C27.8816 25.1952 27.7645 24.9486 27.7792 24.3972C27.7937 20.4508 27.7937 16.5188 27.7937 12.5724Z" fill="url(#paint3_linear)"></path>
<defs>
<linearGradient id="paint0_linear" x1="12.3338" y1="2.42676" x2="12.3338" y2="24.9382" gradientUnits="userSpaceOnUse">
<stop stop-color="#E96821"></stop>
<stop offset="1" stop-color="#E96821"></stop>
</linearGradient>
<linearGradient id="paint1_linear" x1="58.1119" y1="7.72266" x2="58.1119" y2="31.9997" gradientUnits="userSpaceOnUse">
<stop stop-color="#E96821"></stop>
<stop offset="1" stop-color="#E96821"></stop>
</linearGradient>
<linearGradient id="paint2_linear" x1="39.5561" y1="3.53247" x2="39.5561" y2="24.9404" gradientUnits="userSpaceOnUse">
<stop stop-color="#E96821"></stop>
<stop offset="1" stop-color="#E96821"></stop>
</linearGradient>
<linearGradient id="paint3_linear" x1="29.5559" y1="0" x2="29.5559" y2="25.1599" gradientUnits="userSpaceOnUse">
<stop stop-color="#E96821"></stop>
<stop offset="1" stop-color="#E96821"></stop>
</linearGradient>
</defs>
</svg>