<svg xmlns="http://www.w3.org/2000/svg" viewBox="0.04 -0.01 337.83 344.26"><defs><style>.cls-1{fill:#006bff;}.cls-2{fill:#0ae8f0;}</style></defs><g id="Layer_2" data-name="Layer 2"><g id="Layer_1-2" data-name="Layer 1"><g id="Brand_mark" data-name="Brand mark"><path class="cls-1" d="M231.58,223.23C220.65,232.93,207,245,182.25,245h-14.8c-17.91,0-34.2-6.51-45.86-18.31-11.39-11.53-17.66-27.31-17.66-44.44V162c0-17.13,6.27-32.91,17.66-44.44,11.66-11.8,27.95-18.3,45.86-18.3h14.8c24.78,0,38.4,12.06,49.33,21.76,11.35,10,21.14,18.74,47.25,18.74a75.11,75.11,0,0,0,11.89-.95l-.09-.23a89.53,89.53,0,0,0-5.49-11.28L267.69,97.07a89.65,89.65,0,0,0-77.64-44.82H155.14A89.65,89.65,0,0,0,77.5,97.07L60.05,127.3a89.67,89.67,0,0,0,0,89.65L77.5,247.18A89.65,89.65,0,0,0,155.14,292h34.91a89.65,89.65,0,0,0,77.64-44.82L285.14,217a89.53,89.53,0,0,0,5.49-11.28l.09-.22a74,74,0,0,0-11.89-1c-26.11,0-35.9,8.69-47.25,18.74"/><path class="cls-1" d="M182.25,117.61h-14.8c-27.26,0-45.17,19.47-45.17,44.39v20.25c0,24.92,17.91,44.39,45.17,44.39h14.8c39.72,0,36.6-40.5,96.58-40.5a91.64,91.64,0,0,1,16.94,1.56,89.54,89.54,0,0,0,0-31.15,92.51,92.51,0,0,1-16.94,1.56c-60,0-56.86-40.5-96.58-40.5"/><path class="cls-1" d="M330.23,202.5a83.62,83.62,0,0,0-34.45-14.81c0,.11,0,.2,0,.3a89.7,89.7,0,0,1-5,17.45,65.58,65.58,0,0,1,28.48,11.73c0,.08-.05.18-.08.27a153.57,153.57,0,1,1,0-90.63c0,.09.05.19.08.27a65.45,65.45,0,0,1-28.48,11.72,90.3,90.3,0,0,1,5,17.47,2.33,2.33,0,0,0,0,.28,83.6,83.6,0,0,0,34.45-14.8c9.82-7.27,7.92-15.48,6.43-20.34a172.13,172.13,0,1,0,0,101.43c1.49-4.86,3.39-13.07-6.43-20.34"/><path class="cls-2" d="M290.72,138.8a74,74,0,0,1-11.89,1c-26.11,0-35.9-8.69-47.24-18.74-10.94-9.7-24.56-21.77-49.34-21.77h-14.8c-17.92,0-34.2,6.51-45.86,18.31-11.39,11.53-17.66,27.31-17.66,44.44v20.25c0,17.13,6.27,32.91,17.66,44.44,11.66,11.8,27.94,18.3,45.86,18.3h14.8c24.78,0,38.4-12.06,49.34-21.76,11.34-10,21.13-18.74,47.24-18.74a75.11,75.11,0,0,1,11.89.95,89,89,0,0,0,5-17.45,2.68,2.68,0,0,0,0-.3,92.51,92.51,0,0,0-16.94-1.55c-60,0-56.86,40.51-96.58,40.51h-14.8c-27.26,0-45.17-19.48-45.17-44.4V162c0-24.92,17.91-44.39,45.17-44.39h14.8c39.72,0,36.6,40.49,96.58,40.49a91.64,91.64,0,0,0,16.94-1.55c0-.09,0-.18,0-.28a90.3,90.3,0,0,0-5-17.47"/><path class="cls-2" d="M290.72,138.8a74,74,0,0,1-11.89,1c-26.11,0-35.9-8.69-47.24-18.74-10.94-9.7-24.56-21.77-49.34-21.77h-14.8c-17.92,0-34.2,6.51-45.86,18.31-11.39,11.53-17.66,27.31-17.66,44.44v20.25c0,17.13,6.27,32.91,17.66,44.44,11.66,11.8,27.94,18.3,45.86,18.3h14.8c24.78,0,38.4-12.06,49.34-21.76,11.34-10,21.13-18.74,47.24-18.74a75.11,75.11,0,0,1,11.89.95,89,89,0,0,0,5-17.45,2.68,2.68,0,0,0,0-.3,92.51,92.51,0,0,0-16.94-1.55c-60,0-56.86,40.51-96.58,40.51h-14.8c-27.26,0-45.17-19.48-45.17-44.4V162c0-24.92,17.91-44.39,45.17-44.39h14.8c39.72,0,36.6,40.49,96.58,40.49a91.64,91.64,0,0,0,16.94-1.55c0-.09,0-.18,0-.28a90.3,90.3,0,0,0-5-17.47"/></g></g></g></svg>