<svg xmlns="http://www.w3.org/2000/svg" fill="none" viewBox="10 -1.25 27.25 26">
  <g id="#ffffffff" transform="matrix(0.128056, 0, 0, 0.128056, 13.510828, 0.851456)" style="">
    <path opacity="1" d="M20.09 26.93C19.8 22.96 24.73 19.77 28.24 21.78c11.39 6.43 22.67 13.08 34.02 19.58C72.28 33.2 85 28.28 97.98 28.29 114.1 28.03 130.09 35.21 140.68 47.34c10.31 11.51 15.44 27.41 13.86 42.77C153.11 106.02 144.41 121.04 131.43 130.33c-11.28 8.25-25.72 11.97-39.59 10.28C80.92 139.4 70.54 134.7 62.09 127.74c-11.07 6.36-22.11 12.78-33.18 19.15C25.42 149.45 19.7 146.4 20.1 142.06 20.16 103.69 20.14 65.31 20.09 26.93m45.65 16.5c18.67 10.7 37.32 21.47 55.92 32.3C121.58 62.93 121.64 50.13 121.63 37.32c-17.78-8.89-40.48-6.47-55.89 6.11M52.69 38.46c-4.86 9.45-8.11 19.7-9.88 30.16C39.23 89.61 43.05 111.63 52.63 130.57c24.71-14.27 49.44-28.52 74.15-42.82C129.31 86.82 129.93 82.96 127.4 81.65 102.54 67.19 77.6 52.86 52.69 38.46M65.5 125.75C81.02 138.32 103.77 140.96 121.64 131.92 121.63 119.04 121.59 106.15 121.66 93.26c-18.67 10.92-37.44 21.66-56.16 32.49z" style="fill: rgb(255, 255, 255);"/>
  </g>
</svg>