<svg viewBox="-14 -16 80 80" fill="none" xmlns="http://www.w3.org/2000/svg"><path fill-rule="evenodd" clip-rule="evenodd" d="M10.944 44.2494C11.9065 45.9213 13.6896 46.9537 15.6215 46.9577L36.1449 47C38.0768 47.004 39.8642 45.9789 40.8336 44.3109L51.132 26.5918C52.1014 24.9238 52.1057 22.8663 51.1431 21.1944L44.2869 9.28477C44.2869 9.28477 45.5645 8.10118 47.1226 6.15727C48.6806 4.21342 48.9586 0.475264 48.9525 0.0876912C48.9504 -0.0401774 48.7925 -0.0145427 48.2277 0.0772542C47.081 0.263595 44.2574 0.722457 37.6567 0.722762C37.6567 0.722762 37.7515 0.708663 35.2488 0.722518L15.7172 0.682296C13.7852 0.678328 11.9979 1.70341 11.0284 3.37138L0.730045 21.0906C-0.239376 22.7585 -0.243588 24.816 0.718937 26.488L10.944 44.2494ZM13.1309 19.4442C13.6668 18.516 14.6572 17.9442 15.729 17.9442H19.4356C20.5074 17.9442 21.4977 18.516 22.0336 19.4442L23.887 22.6542C24.4229 23.5824 24.4229 24.726 23.887 25.6542L22.0336 28.8642C21.4977 29.7924 20.5074 30.3642 19.4356 30.3642H15.729C14.6572 30.3642 13.6668 29.7924 13.1309 28.8642L11.2776 25.6542C10.7417 24.726 10.7417 23.5824 11.2776 22.6542L13.1309 19.4442ZM40.4711 19.4444C39.9352 18.5162 38.9448 17.9444 37.8731 17.9444H34.1664C33.0947 17.9444 32.1043 18.5162 31.5684 19.4444L29.7151 22.6544C29.1791 23.5827 29.1791 24.7262 29.7151 25.6544L31.5684 28.8645C32.1043 29.7926 33.0947 30.3645 34.1664 30.3645H37.8731C38.9448 30.3645 39.9352 29.7926 40.4711 28.8645L42.3244 25.6544C42.8603 24.7262 42.8603 23.5827 42.3244 22.6544L40.4711 19.4444Z" fill="#33BAA2"></path></svg>