<svg viewBox="-24 -16 80 80" version="1.1" xmlns="http://www.w3.org/2000/svg" xmlns:xlink="http://www.w3.org/1999/xlink">
  <g id="wordmark" stroke="none" stroke-width="1" fill="none" fill-rule="evenodd">
    <g id="Logo-(1)" transform="translate(0.000000, 0.000000)" fill="#fff">
      <path d="M15.8240916,0 C7.08466575,0 0,7.08466575 0,15.8240916 C0,21.8972486 3.42127325,27.1713359 8.44158584,29.8241542 C4.31718667,37.1156712 0,44.7965609 0,45 L31.6481832,45 L23.1461689,29.855852 C28.19946,27.2135666 31.6481832,21.9215782 31.6481832,15.8240916 C31.6481832,7.08466575 24.563468,0 15.8240916,0 Z M23.1461689,29.855852 L15.8240916,16.8133477 C15.8240916,16.8133477 12.2134677,23.1559106 8.44158584,29.8241542 C10.6456414,30.9887616 13.1578722,31.6481832 15.8240916,31.6481832 C18.4660308,31.6481832 20.9567012,31.0007286 23.1461689,29.855852 Z" id="Shape"></path>
    </g>
  </g>
</svg>