<svg xmlns="http://www.w3.org/2000/svg" version="1.0" preserveAspectRatio="xMidYMid meet" viewBox="0.5 0.3 440.44 441.64">
<metadata>
Created by potrace 1.16, written by Peter Selinger 2001-2019
</metadata>
<g transform="translate(0.000000,442.000000) scale(0.100000,-0.100000)" fill="#FF4500" stroke="none">
<path d="M1910 4405 c-384 -55 -723 -193 -1026 -417 -136 -101 -346 -310 -448 -447 -213 -286 -346 -598 -413 -966 -14 -80 -18 -153 -18 -365 0 -232 3 -280 22 -385 180 -967 927 -1681 1893 -1811 139 -18 429 -18 574 1 668 88 1255 472 1603 1050 159 263 256 545 299 865 18 140 18 420 -1 567 -82 633 -427 1193 -955 1550 -256 173 -545 289 -870 348 -129 24 -526 30 -660 10z m1291 -870 c160 -57 205 -266 83 -389 -124 -125 -336 -63 -383 111 -8 29 -18 43 -34 46 -107 27 -441 96 -445 92 -6 -5 -141 -633 -142 -656 0 -13 16 -17 81 -23 248 -21 525 -110 712 -229 l56 -36 50 33 c48 33 123 56 178 56 52 0 141 -32 189 -69 89 -67 144 -195 129 -300 -13 -95 -77 -196 -151 -242 -35 -21 -35 -22 -29 -78 8 -70 -14 -196 -48 -279 -38 -94 -84 -166 -163 -250 -391 -421 -1202 -535 -1799 -253 -168 80 -297 177 -396 300 -114 140 -169 289 -169 455 l0 91 -37 20 c-48 26 -107 102 -128 166 -25 74 -17 187 18 255 34 67 114 138 178 159 98 33 222 16 295 -40 18 -14 36 -25 39 -25 4 0 25 13 48 29 178 122 467 214 742 237 l80 6 83 391 c45 215 87 396 93 404 18 21 60 16 327 -41 l253 -54 52 52 c74 74 148 92 238 61z"/>
<path d="M1610 2184 c-80 -35 -133 -116 -133 -204 0 -189 221 -289 369 -167 97 80 100 241 7 329 -59 56 -167 75 -243 42z"/>
<path d="M2632 2187 c-144 -53 -193 -232 -95 -346 48 -56 99 -81 168 -81 94 0 165 42 207 124 31 60 23 160 -17 218 -56 80 -172 118 -263 85z"/>
<path d="M1672 1454 c-31 -22 -27 -55 11 -91 183 -173 677 -205 957 -63 77 39 120 78 120 109 0 30 -27 61 -53 61 -9 0 -32 -14 -51 -30 -81 -72 -212 -110 -399 -117 -216 -9 -369 25 -484 106 -66 46 -70 47 -101 25z"/>
</g>
</svg>