<svg viewBox="-22 -22 350 350" fill="none" xmlns="http://www.w3.org/2000/svg" preserveAspectRatio="xMidYMid meet" data-cursor="{&quot;mode&quot;:&quot;hover&quot;}" class="GlobalNav__logo"><path d="M171.526 228.694l-5.279-5.279a10.948 10.948 0 00-15.491 0 11.107 11.107 0 00-2.421 3.657 11.112 11.112 0 00-.49 6.788l-16.169 3.401 6.086 6.086 14.095-3.22 6.562-1.509-3.635-3.635c-1.509-1.508-1.267-4.245.248-5.761l.8-.754a4.034 4.034 0 015.566-.181l5.279 5.241-19.375 19.381 4.661 4.661 24.246-24.253-4.17-4.163-.513-.46z" fill="#fff" class="ReflektorLogo__letter" style="opacity: 1;"></path><path d="M124.458 181.017a17.754 17.754 0 00-8.017-4.729 16.934 16.934 0 00-9.05 0 18.029 18.029 0 00-8.039 4.751 17.648 17.648 0 00-4.69 7.941 16.785 16.785 0 000 8.914 17.846 17.846 0 004.69 7.911 18.141 18.141 0 008.039 4.789c2.961.824 6.09.824 9.05 0a18.667 18.667 0 0012.745-12.715 16.794 16.794 0 000-8.936 17.84 17.84 0 00-4.728-7.926zm-1.931 14.909a11.52 11.52 0 01-3.062 5.045 11.23 11.23 0 01-5.015 3.017 10.45 10.45 0 01-5.535.045 10.714 10.714 0 01-4.834-2.813 10.55 10.55 0 01-2.798-4.781 10.023 10.023 0 01.075-5.437 11.464 11.464 0 013.017-4.978 11.708 11.708 0 015.068-3.077 10.34 10.34 0 015.505-.068 10.56 10.56 0 014.811 2.798 10.635 10.635 0 012.813 4.804 10.188 10.188 0 01-.015 5.407l-.03.038z" fill="#fff" class="ReflektorLogo__letter" style="opacity: 1;"></path><path d="M72.293 129.471l-4.661 4.66 7.345 7.338-19.585 19.585 4.653 4.668 19.593-19.592 7.338 7.345 4.66-4.661-19.343-19.343z" fill="#fff" class="ReflektorLogo__letter" style="opacity: 1;"></path><path d="M212.364 186.582l-19.729 1.712 10.717-10.724-4.661-4.66-24.246 24.253 4.66 4.661 10.928-10.936-1.734 20.068 6.086 6.094 1.946-22.459 22.127-1.915-6.094-6.094z" fill="#fff" class="ReflektorLogo__letter" style="opacity: 1;"></path><g fill="#fff" class="ReflektorLogo__letter" style="opacity: 1;"><path d="M157.691 131.899l-4.661 4.661 15.833 15.832 4.661-4.66-15.833-15.833z"></path><path d="M147.977 141.617l-4.66 4.66 15.832 15.833 4.661-4.661-15.833-15.832z"></path><path d="M138.271 151.323l-4.66 4.661 15.832 15.832 4.661-4.66-15.833-15.833z"></path></g><path d="M111.781 125.179l-11.169-11.176 19.585-19.585-4.661-4.66-19.593 19.584-4.653 4.661 15.83 15.83 4.661-4.654z" fill="#fff" class="ReflektorLogo__letter" style="opacity: 1;"></path><path d="M252.418 154.094l4.661-4.661-11.185-11.177.008-.015-4.661-4.66-24.246 24.246 4.661 4.668 9.864-9.872 9.631 9.623 4.653-4.661-9.623-9.623 5.053-5.045 11.184 11.177z" fill="#fff" class="ReflektorLogo__letter" style="opacity: 1;"></path><g fill="#fff" class="ReflektorLogo__letter" style="opacity: 1;"><path d="M198.62 90.98l-4.661 4.66 15.833 15.833 4.66-4.661L198.62 90.98z"></path><path d="M188.901 100.684l-4.661 4.661 15.833 15.832 4.66-4.661-15.832-15.832z"></path><path d="M179.2 110.396l-4.661 4.661 15.833 15.832 4.661-4.661-15.833-15.832z"></path></g><path d="M154.489 56.582l5.279 5.28a4.036 4.036 0 01-.174 5.572l-.754.755c-1.508 1.508-4.246 1.772-5.761.256l-3.733-3.62-1.509 6.554-3.227 14.087 6.086 6.094 3.408-16.184a10.96 10.96 0 0010.438-2.904 10.954 10.954 0 002.375-11.942 10.954 10.954 0 00-2.375-3.556l-5.739-5.739-4.171-4.163-24.14 24.239 4.661 4.66 19.336-19.389z" fill="#fff" class="ReflektorLogo__letter" style="opacity: 1;"></path><mask id="a" maskUnits="userSpaceOnUse" x="0" y="0" width="307" height="307"><path stroke="#fff" stroke-width="6" stroke-miterlimit="16" d="M153.484 4.243l149 149-149 148.999-149-149z" class="ReflektorLogo__outline" style="stroke-dashoffset: -421.935; stroke-dasharray: 421.935px, 853.87px;"></path><path stroke="#fff" stroke-width="6" stroke-miterlimit="16" d="M153.484 4.243l149 149-149 148.999-149-149z" class="ReflektorLogo__helper" style="stroke-dashoffset: 421.935; stroke-dasharray: 843.87px, 853.87px;"></path></mask><g mask="url(#a)"><path fill="#fff" d="M0 0h306v306H0z"></path><path fill="url(#paint0_linear)" d="M0 0h306v306H0z" class="ReflektorLogo__gradient" data-svg-origin="153 153" transform="matrix(-1,0,0,-1,306,306)" style="transform-origin: 0px 0px; opacity: 0;"></path></g><defs><linearGradient id="paint0_linear" x1="153" y1="0" x2="153" y2="306" gradientUnits="userSpaceOnUse"><stop stop-color="#1B192E"></stop><stop offset=".397" stop-color="#9116E7"></stop><stop offset="1" stop-color="#FF738B"></stop></linearGradient></defs></svg>