<svg width="100%" height="100%" focusable="false" class="base_root__8PzDO" viewBox="0 0 355 83"><path d="M71.3618 70.8798C79.282 63.1796 83.2421 53.4993 83.2421 41.8391C83.2421 30.3988 79.282 20.6086 71.3618 12.6884C63.4416 4.76818 53.5413 0.808083 41.6611 0.808083C29.7808 0.808083 19.8805 4.76818 11.9604 12.6884C4.04017 20.6086 0.0800736 30.3988 0.0800736 41.8391C0.0800736 53.2793 4.04017 62.9596 11.9604 70.8798C19.8805 78.7999 29.7808 82.76 41.6611 82.76C53.5413 82.76 63.4416 78.7999 71.3618 70.8798ZM41.6611 73.0798C32.6409 73.0798 25.1607 70.1097 19.4405 64.0596C13.5004 58.1195 10.6403 50.6393 10.6403 41.8391C10.6403 33.0389 13.5004 25.6687 19.4405 19.5085C25.2707 13.5684 32.6409 10.5983 41.6611 10.5983C50.6813 10.5983 58.1615 13.5684 64.1016 19.5085C69.9317 25.6687 72.9018 33.0389 72.9018 41.8391C72.9018 50.6393 69.9317 58.1195 64.1016 64.0596C58.1615 70.1097 50.6813 73.0798 41.6611 73.0798ZM41.9911 65.0496C47.7112 65.0496 52.4413 63.5096 56.1814 60.2095C59.9215 57.0194 62.0116 52.7293 62.5616 47.2292H51.7813C51.3413 50.0893 50.3513 52.1793 48.5912 53.6093C46.8312 55.1494 44.6311 55.8094 41.9911 55.8094C38.581 55.8094 35.9409 54.5994 34.1809 52.1793C32.3108 49.7593 31.4308 46.3492 31.4308 41.8391C31.4308 37.329 32.3108 33.8089 34.1809 31.3888C35.9409 28.9688 38.581 27.7587 41.9911 27.7587C47.4912 27.7587 50.5713 30.5088 51.4513 36.0089H62.4516C61.7916 30.7288 59.7015 26.4387 56.0714 23.3586C52.3313 20.2785 47.7112 18.6285 41.9911 18.6285C35.3909 18.6285 30.2208 20.7186 26.2607 24.8987C22.3006 29.0788 20.4306 34.7989 20.4306 41.8391C20.4306 48.8792 22.3006 54.5994 26.2607 58.7795C30.2208 62.9596 35.3909 65.0496 41.9911 65.0496ZM153.146 60.2095C152.926 55.6994 152.046 52.0693 150.286 49.4292C148.526 46.7892 145.776 44.8091 141.816 43.4891C150.506 40.409 154.906 34.2489 154.906 24.7887C154.906 17.9685 152.486 12.5784 147.646 8.61827C142.806 4.65818 135.986 2.67813 127.296 2.67813H91.7647V81H106.615V50.3093H125.975C130.156 50.3093 133.236 51.2993 135.216 53.1693C137.196 55.0394 138.296 58.3395 138.516 63.0696L138.846 71.6498C138.846 75.7199 139.616 78.7999 140.936 81H156.226C154.686 78.6899 153.806 75.6099 153.806 71.8698L153.146 60.2095ZM106.615 14.8884H125.865C130.266 14.8884 133.566 15.8784 135.986 17.8585C138.406 19.8385 139.616 22.6986 139.616 26.4387C139.616 30.3988 138.406 33.4789 136.096 35.5689C133.786 37.659 130.596 38.649 126.416 38.649H106.615V14.8884ZM171.521 81L199.572 2.67813H186.151L158.101 81H171.521ZM239.012 50.7493H259.472C259.032 56.4694 256.832 60.9795 252.652 64.4996C248.472 68.0197 243.412 69.7797 237.582 69.7797C230.102 69.7797 224.271 67.3597 220.091 62.2996C215.801 57.3494 213.711 50.5293 213.711 41.8391C213.711 33.2589 215.801 26.4387 219.981 21.3786C224.161 16.4285 229.772 13.8984 237.032 13.8984C242.312 13.8984 246.822 15.2184 250.562 17.8585C254.302 20.4986 256.722 24.1286 257.822 28.7488H273.113C271.793 20.1685 267.832 13.4584 261.452 8.39826C254.852 3.44814 246.712 0.918084 236.922 0.918084C225.041 0.918084 215.581 4.65818 208.651 12.0284C201.611 19.6185 198.201 29.5188 198.201 41.8391C198.201 54.1594 201.611 64.0596 208.431 71.5398C215.251 79.02 224.271 82.76 235.602 82.76C246.932 82.76 255.402 78.7999 261.122 70.6598L263.212 81H273.993V38.759H239.012V50.7493ZM354.949 81L324.589 2.67813H307.208L277.398 81H292.688L298.738 63.7296H333.059L339.219 81H354.949ZM306.218 42.6091C309.518 33.8089 312.708 24.8987 315.788 15.7684C319.639 27.2087 322.829 36.1189 325.469 42.6091L328.549 51.0793H303.248L306.218 42.6091Z" fill="white"></path></svg>