<svg viewBox="-245 -1176 3000 3000" fill="none" xmlns="http://www.w3.org/2000/svg">
<path d="M510.848 58.9263L423.39 553.226H337.875L255.6 214.407L172.677 553.226H87.1623L0.352163 58.9263H80.6839L135.75 388.028L216.73 58.9263H294.47L375.45 388.028L430.516 58.9263H510.848Z" fill="#8C49A4"/>
<path d="M592.99 553.226H866.377V58.9263H598.172V134.075H782.806V258.46H606.594V332.961H782.806V478.725H592.99V553.226Z" fill="#8C49A4"/>
<path d="M1287.36 553.226H1013.33V58.9263H1096.9V478.725H1287.36V553.226ZM1612.58 306.4C1612.58 280.487 1609.34 255.653 1602.86 231.899C1596.38 207.713 1587.53 187.198 1576.3 170.354C1565.5 154.806 1552.55 143.145 1537.43 135.371C1522.31 127.165 1507.2 123.062 1492.08 123.062C1476.96 123.062 1461.63 127.165 1446.08 135.371C1430.97 143.145 1418.23 154.806 1407.86 170.354C1396.2 187.198 1387.13 207.713 1380.65 231.899C1374.17 255.653 1370.94 280.487 1370.94 306.4C1370.94 332.314 1374.17 357.147 1380.65 380.901C1387.13 404.223 1396.2 424.306 1407.86 441.15C1418.23 457.13 1430.97 469.007 1446.08 476.781C1461.63 484.555 1476.96 488.442 1492.08 488.442C1507.2 488.442 1522.31 484.555 1537.43 476.781C1552.55 469.007 1565.5 457.13 1576.3 441.15C1587.53 424.306 1596.38 404.223 1602.86 380.901C1609.34 357.147 1612.58 332.314 1612.58 306.4ZM1696.8 306.4C1696.8 340.951 1692.05 374.207 1682.54 406.167C1673.48 438.127 1659.87 465.552 1641.73 488.442C1623.59 511.764 1601.13 529.688 1574.36 542.213C1548.01 554.738 1520.59 561 1492.08 561C1463.14 561 1435.29 554.738 1408.51 542.213C1382.16 529.688 1359.92 511.764 1341.78 488.442C1323.64 465.552 1309.82 438.127 1300.32 406.167C1291.25 374.207 1286.72 340.951 1286.72 306.4C1286.72 271.849 1291.25 238.593 1300.32 206.633C1309.82 174.673 1323.64 147.032 1341.78 123.71C1359.92 100.82 1382.16 82.8963 1408.51 69.9396C1435.29 56.9828 1463.14 50.5045 1492.08 50.5045C1520.59 50.5045 1548.01 56.9828 1574.36 69.9396C1601.13 82.8963 1623.59 100.82 1641.73 123.71C1659.87 147.032 1673.48 174.673 1682.54 206.633C1692.05 238.593 1696.8 271.849 1696.8 306.4ZM2045.33 306.4C2045.33 280.487 2042.09 255.653 2035.62 231.899C2029.14 207.713 2020.28 187.198 2009.05 170.354C1998.26 154.806 1985.3 143.145 1970.18 135.371C1955.07 127.165 1939.95 123.062 1924.84 123.062C1909.72 123.062 1894.39 127.165 1878.84 135.371C1863.72 143.145 1850.98 154.806 1840.62 170.354C1828.96 187.198 1819.89 207.713 1813.41 231.899C1806.93 255.653 1803.69 280.487 1803.69 306.4C1803.69 332.314 1806.93 357.147 1813.41 380.901C1819.89 404.223 1828.96 424.306 1840.62 441.15C1850.98 457.13 1863.72 469.007 1878.84 476.781C1894.39 484.555 1909.72 488.442 1924.84 488.442C1939.95 488.442 1955.07 484.555 1970.18 476.781C1985.3 469.007 1998.26 457.13 2009.05 441.15C2020.28 424.306 2029.14 404.223 2035.62 380.901C2042.09 357.147 2045.33 332.314 2045.33 306.4ZM2129.55 306.4C2129.55 340.951 2124.8 374.207 2115.3 406.167C2106.23 438.127 2092.63 465.552 2074.49 488.442C2056.35 511.764 2033.89 529.688 2007.11 542.213C1980.77 554.738 1953.34 561 1924.84 561C1895.9 561 1868.04 554.738 1841.26 542.213C1814.92 529.688 1792.68 511.764 1774.54 488.442C1756.4 465.552 1742.58 438.127 1733.08 406.167C1724.01 374.207 1719.47 340.951 1719.47 306.4C1719.47 271.849 1724.01 238.593 1733.08 206.633C1742.58 174.673 1756.4 147.032 1774.54 123.71C1792.68 100.82 1814.92 82.8963 1841.26 69.9396C1868.04 56.9828 1895.9 50.5045 1924.84 50.5045C1953.34 50.5045 1980.77 56.9828 2007.11 69.9396C2033.89 82.8963 2056.35 100.82 2074.49 123.71C2092.63 147.032 2106.23 174.673 2115.3 206.633C2124.8 238.593 2129.55 271.849 2129.55 306.4ZM2510.48 553.226H2407.47L2253.29 362.762V553.226H2171.01V58.9263H2253.29V231.899L2395.17 58.9263H2495.58L2302.52 292.795L2510.48 553.226Z" fill="#303F64"/>
</svg>
